<svg width="28" height="28" viewBox="0 0 28 28" fill="none" xmlns="http://www.w3.org/2000/svg">
<g id="Group">
<g id="Vector" filter="url(#filter0_ii_1580_45654)">
<path d="M10.1172 3.5H17.8837L18.7587 0H9.24219L10.1172 3.5Z" fill="url(#paint0_linear_1580_45654)" fill-opacity="0.7"/>
<path d="M3.5 10.115L0 9.23999V18.76L3.5 17.885V10.115Z" fill="url(#paint1_linear_1580_45654)" fill-opacity="0.7"/>
<path d="M23.2875 6.8127L27.4875 5.7627L22.2375 0.512695L21.1875 4.7127L23.2875 6.8127Z" fill="url(#paint2_linear_1580_45654)" fill-opacity="0.7"/>
<path d="M7 9.4745V18.5255L9.4745 21H18.5255L21 18.5255V9.4745L18.5255 7H9.4745L7 9.4745Z" fill="url(#paint3_linear_1580_45654)" fill-opacity="0.7"/>
<path d="M23.2875 21.1873L21.1875 23.2873L22.2375 27.4873L27.4875 22.2373L23.2875 21.1873Z" fill="url(#paint4_linear_1580_45654)" fill-opacity="0.7"/>
<path d="M24.5 10.115V17.885L28 18.76V9.23999L24.5 10.115Z" fill="url(#paint5_linear_1580_45654)" fill-opacity="0.7"/>
<path d="M17.8837 24.5H10.1172L9.24219 28H18.7587L17.8837 24.5Z" fill="url(#paint6_linear_1580_45654)" fill-opacity="0.7"/>
<path d="M6.81172 23.2873L4.71172 21.1873L0.511719 22.2373L5.76172 27.4873L6.81172 23.2873Z" fill="url(#paint7_linear_1580_45654)" fill-opacity="0.7"/>
<path d="M4.71172 6.8127L6.81172 4.7127L5.76172 0.512695L0.511719 5.7627L4.71172 6.8127Z" fill="url(#paint8_linear_1580_45654)" fill-opacity="0.7"/>
</g>
</g>
<defs>
<filter id="filter0_ii_1580_45654" x="0" y="0" width="28" height="28" filterUnits="userSpaceOnUse" color-interpolation-filters="sRGB">
<feFlood flood-opacity="0" result="BackgroundImageFix"/>
<feBlend mode="normal" in="SourceGraphic" in2="BackgroundImageFix" result="shape"/>
<feColorMatrix in="SourceAlpha" type="matrix" values="0 0 0 0 0 0 0 0 0 0 0 0 0 0 0 0 0 0 127 0" result="hardAlpha"/>
<feOffset dy="0.7"/>
<feComposite in2="hardAlpha" operator="arithmetic" k2="-1" k3="1"/>
<feColorMatrix type="matrix" values="0 0 0 0 1 0 0 0 0 1 0 0 0 0 1 0 0 0 0.29 0"/>
<feBlend mode="normal" in2="shape" result="effect1_innerShadow_1580_45654"/>
<feColorMatrix in="SourceAlpha" type="matrix" values="0 0 0 0 0 0 0 0 0 0 0 0 0 0 0 0 0 0 127 0" result="hardAlpha"/>
<feOffset/>
<feGaussianBlur stdDeviation="0.348614"/>
<feComposite in2="hardAlpha" operator="arithmetic" k2="-1" k3="1"/>
<feColorMatrix type="matrix" values="0 0 0 0 1 0 0 0 0 1 0 0 0 0 1 0 0 0 0.35 0"/>
<feBlend mode="normal" in2="effect1_innerShadow_1580_45654" result="effect2_innerShadow_1580_45654"/>
</filter>
<linearGradient id="paint0_linear_1580_45654" x1="6.07653" y1="28.4422" x2="19.4251" y2="-20.6931" gradientUnits="userSpaceOnUse">
<stop stop-color="#737373"/>
<stop offset="1" stop-color="#CBCBCB" stop-opacity="0.9"/>
</linearGradient>
<linearGradient id="paint1_linear_1580_45654" x1="6.07653" y1="28.4422" x2="19.4251" y2="-20.6931" gradientUnits="userSpaceOnUse">
<stop stop-color="#737373"/>
<stop offset="1" stop-color="#CBCBCB" stop-opacity="0.9"/>
</linearGradient>
<linearGradient id="paint2_linear_1580_45654" x1="6.07653" y1="28.4422" x2="19.4251" y2="-20.6931" gradientUnits="userSpaceOnUse">
<stop stop-color="#737373"/>
<stop offset="1" stop-color="#CBCBCB" stop-opacity="0.9"/>
</linearGradient>
<linearGradient id="paint3_linear_1580_45654" x1="6.07653" y1="28.4422" x2="19.4251" y2="-20.6931" gradientUnits="userSpaceOnUse">
<stop stop-color="#737373"/>
<stop offset="1" stop-color="#CBCBCB" stop-opacity="0.9"/>
</linearGradient>
<linearGradient id="paint4_linear_1580_45654" x1="6.07653" y1="28.4422" x2="19.4251" y2="-20.6931" gradientUnits="userSpaceOnUse">
<stop stop-color="#737373"/>
<stop offset="1" stop-color="#CBCBCB" stop-opacity="0.9"/>
</linearGradient>
<linearGradient id="paint5_linear_1580_45654" x1="6.07653" y1="28.4422" x2="19.4251" y2="-20.6931" gradientUnits="userSpaceOnUse">
<stop stop-color="#737373"/>
<stop offset="1" stop-color="#CBCBCB" stop-opacity="0.9"/>
</linearGradient>
<linearGradient id="paint6_linear_1580_45654" x1="6.07653" y1="28.4422" x2="19.4251" y2="-20.6931" gradientUnits="userSpaceOnUse">
<stop stop-color="#737373"/>
<stop offset="1" stop-color="#CBCBCB" stop-opacity="0.9"/>
</linearGradient>
<linearGradient id="paint7_linear_1580_45654" x1="6.07653" y1="28.4422" x2="19.4251" y2="-20.6931" gradientUnits="userSpaceOnUse">
<stop stop-color="#737373"/>
<stop offset="1" stop-color="#CBCBCB" stop-opacity="0.9"/>
</linearGradient>
<linearGradient id="paint8_linear_1580_45654" x1="6.07653" y1="28.4422" x2="19.4251" y2="-20.6931" gradientUnits="userSpaceOnUse">
<stop stop-color="#737373"/>
<stop offset="1" stop-color="#CBCBCB" stop-opacity="0.9"/>
</linearGradient>
</defs>
</svg>
